<svg xmlns="http://www.w3.org/2000/svg" viewBox="0 0 24 24" fill="#ffffff" aria-hidden="true">
  <path d="M12.785 16.241s.288-.032.436-.194c.136-.148.132-.427.132-.427s-.02-1.304.58-1.496c.592-.19 1.354.956 2.16 1.378.61.318 1.074.248 1.074.248l2.151-.03s1.124-.071.59-.964c-.044-.071-.31-.661-1.588-1.87-1.344-1.268-1.163-.532.454-1.628 1.034-.86 1.448-1.386 1.318-1.61-.124-.214-.89-.158-.89-.158l-2.437.015s-.181-.025-.315.056c-.13.078-.213.26-.213.26s-.382 1.034-.89 1.914c-1.07 1.82-1.498 1.916-1.672 1.804-.406-.262-.305-1.054-.305-1.616 0-1.756.266-2.488-.52-2.678-.262-.065-.454-.108-1.124-.115-.86-.01-1.588.003-1.998.208-.274.136-.486.44-.357.458.16.022.522.098.712.36.247.338.238 1.098.238 1.098s.142 2.096-.33 2.358c-.325.178-.77-.185-1.726-1.848-.49-.86-.86-1.812-.86-1.812s-.072-.178-.2-.274c-.155-.116-.372-.152-.372-.152l-2.322.015s-.348.01-.476.162c-.114.136-.009.418-.009.418s1.816 4.258 3.872 6.404c1.886 1.97 4.032 1.84 4.032 1.84h.962z"/>
</svg>
